<svg width="519" height="559" viewBox="0 0 519 559" fill="none" xmlns="http://www.w3.org/2000/svg">
<path d="M160.672 266.929C133.791 203.935 163.067 131.076 226.062 104.195L470.24 -3.87659e-05C497.121 62.9948 467.845 135.854 404.85 162.735L160.672 266.929Z" fill="url(#paint0_linear)"/>
<path d="M48.6723 558.397C21.7913 495.402 51.0674 422.544 114.062 395.663L358.24 291.468C385.121 354.463 355.845 427.321 292.85 454.202L48.6723 558.397Z" fill="url(#paint1_linear)"/>
<circle cx="208.5" cy="304.501" r="37.5" fill="url(#paint2_linear)"/>
<circle cx="315.5" cy="253.501" r="37.5" fill="url(#paint3_linear)"/>
<defs>
<linearGradient id="paint0_linear" x1="136.336" y1="209.898" x2="491.001" y2="60.1209" gradientUnits="userSpaceOnUse">
<stop stop-color="#4136F1"/>
<stop offset="1" stop-color="#8743FF"/>
</linearGradient>
<linearGradient id="paint1_linear" x1="24.3362" y1="501.366" x2="379.001" y2="351.589" gradientUnits="userSpaceOnUse">
<stop stop-color="#4136F1"/>
<stop offset="1" stop-color="#8743FF"/>
</linearGradient>
<linearGradient id="paint2_linear" x1="171" y1="304.501" x2="245.134" y2="304.59" gradientUnits="userSpaceOnUse">
<stop stop-color="#4136F1"/>
<stop offset="1" stop-color="#8743FF"/>
</linearGradient>
<linearGradient id="paint3_linear" x1="278" y1="253.501" x2="352.134" y2="253.59" gradientUnits="userSpaceOnUse">
<stop stop-color="#4136F1"/>
<stop offset="1" stop-color="#8743FF"/>
</linearGradient>
</defs>
</svg>
