<svg width="19" height="22" viewBox="0 0 19 22" fill="none" xmlns="http://www.w3.org/2000/svg">
<path d="M15.4389 11.5816C15.4497 10.7469 15.6714 9.92854 16.0834 9.20259C16.4954 8.47663 17.0844 7.86669 17.7955 7.42952C17.3437 6.78436 16.7478 6.25342 16.055 5.87887C15.3621 5.50431 14.5915 5.29647 13.8043 5.27184C12.1251 5.09558 10.4971 6.27667 9.64141 6.27667C8.76915 6.27667 7.45164 5.28934 6.03291 5.31853C5.11524 5.34818 4.22089 5.61503 3.43702 6.09309C2.65314 6.57115 2.00646 7.24411 1.55999 8.0464C-0.374006 11.3948 1.06858 16.3159 2.92119 19.0225C3.84809 20.3478 4.93137 21.8283 6.34882 21.7758C7.73588 21.7183 8.25392 20.8913 9.92822 20.8913C11.587 20.8913 12.073 21.7758 13.5192 21.7424C15.0076 21.7182 15.9454 20.4112 16.8397 19.0733C17.5057 18.1289 18.0182 17.0852 18.3582 15.9807C17.4934 15.615 16.7555 15.0028 16.2364 14.2205C15.7173 13.4383 15.4399 12.5204 15.4389 11.5816Z" fill="white"/>
<path d="M12.7075 3.49062C13.519 2.51641 13.9188 1.26423 13.822 0C12.5822 0.13022 11.4369 0.722779 10.6144 1.65961C10.2123 2.11728 9.9043 2.64971 9.70805 3.22648C9.5118 3.80325 9.43116 4.41304 9.47072 5.021C10.0909 5.02739 10.7044 4.89297 11.265 4.62788C11.8257 4.3628 12.3189 3.97395 12.7075 3.49062Z" fill="white"/>
</svg>
