<svg width="24" height="24" viewBox="0 0 24 24" fill="none" xmlns="http://www.w3.org/2000/svg">
<path opacity="0.1" fill-rule="evenodd" clip-rule="evenodd" d="M0 12C0 5.37258 5.37258 0 12 0C18.6274 0 24 5.37258 24 12C24 18.6274 18.6274 24 12 24C5.37258 24 0 18.6274 0 12Z" fill="white"/>
<path fill-rule="evenodd" clip-rule="evenodd" d="M12.0002 5.60156C10.2621 5.60156 10.0439 5.60916 9.36125 5.64023C8.67991 5.67143 8.21484 5.7793 7.8079 5.93757C7.38696 6.10103 7.02989 6.3197 6.67415 6.67557C6.31815 7.03131 6.09948 7.38838 5.93548 7.80919C5.77681 8.21626 5.66881 8.68146 5.63814 9.36253C5.60761 10.0452 5.59961 10.2635 5.59961 12.0016C5.59961 13.7398 5.60734 13.9572 5.63828 14.6399C5.66961 15.3213 5.77748 15.7863 5.93561 16.1933C6.09921 16.6142 6.31788 16.9713 6.67375 17.327C7.02936 17.683 7.38643 17.9022 7.8071 18.0657C8.2143 18.224 8.67951 18.3318 9.36072 18.363C10.0434 18.3941 10.2614 18.4017 11.9994 18.4017C13.7377 18.4017 13.9552 18.3941 14.6378 18.363C15.3192 18.3318 15.7848 18.224 16.192 18.0657C16.6128 17.9022 16.9693 17.683 17.3249 17.327C17.6809 16.9713 17.8996 16.6142 18.0636 16.1934C18.2209 15.7863 18.3289 15.3211 18.3609 14.6401C18.3916 13.9574 18.3996 13.7398 18.3996 12.0016C18.3996 10.2635 18.3916 10.0453 18.3609 9.36267C18.3289 8.68133 18.2209 8.21626 18.0636 7.80932C17.8996 7.38838 17.6809 7.03131 17.3249 6.67557C16.9689 6.31957 16.6129 6.1009 16.1916 5.93757C15.7836 5.7793 15.3182 5.67143 14.6369 5.64023C13.9542 5.60916 13.7369 5.60156 11.9982 5.60156H12.0002ZM11.426 6.75489C11.5964 6.75462 11.7866 6.75489 12.0002 6.75489C13.709 6.75489 13.9115 6.76102 14.5863 6.79169C15.2103 6.82022 15.549 6.92449 15.7746 7.01209C16.0733 7.12809 16.2862 7.26676 16.5101 7.49076C16.7341 7.71477 16.8728 7.9281 16.989 8.22677C17.0766 8.45211 17.181 8.79078 17.2094 9.41478C17.2401 10.0895 17.2468 10.2921 17.2468 12.0001C17.2468 13.7082 17.2401 13.9108 17.2094 14.5855C17.1809 15.2095 17.0766 15.5482 16.989 15.7735C16.873 16.0722 16.7341 16.2849 16.5101 16.5087C16.2861 16.7327 16.0734 16.8714 15.7746 16.9874C15.5493 17.0754 15.2103 17.1794 14.5863 17.2079C13.9117 17.2386 13.709 17.2453 12.0002 17.2453C10.2912 17.2453 10.0887 17.2386 9.41402 17.2079C8.79002 17.1791 8.45134 17.0749 8.22561 16.9873C7.92694 16.8713 7.7136 16.7326 7.4896 16.5086C7.2656 16.2846 7.12693 16.0718 7.01066 15.773C6.92306 15.5476 6.81866 15.209 6.79026 14.585C6.75959 13.9103 6.75346 13.7076 6.75346 11.9985C6.75346 10.2895 6.75959 10.0879 6.79026 9.41318C6.81879 8.78918 6.92306 8.45051 7.01066 8.22491C7.12666 7.92624 7.2656 7.7129 7.4896 7.4889C7.7136 7.2649 7.92694 7.12623 8.22561 7.00996C8.45121 6.92196 8.79002 6.81796 9.41402 6.78929C10.0044 6.76262 10.2332 6.75462 11.426 6.75329V6.75489ZM15.4165 7.81757C14.9925 7.81757 14.6485 8.16117 14.6485 8.58531C14.6485 9.00932 14.9925 9.35332 15.4165 9.35332C15.8405 9.35332 16.1845 9.00932 16.1845 8.58531C16.1845 8.16131 15.8405 7.81757 15.4165 7.81757ZM12.0002 8.71491C10.1851 8.71491 8.71352 10.1865 8.71352 12.0016C8.71352 13.8167 10.1851 15.2876 12.0002 15.2876C13.8153 15.2876 15.2864 13.8167 15.2864 12.0016C15.2864 10.1865 13.8153 8.71491 12.0002 8.71491ZM12.0002 9.86826C13.1783 9.86826 14.1336 10.8233 14.1336 12.0016C14.1336 13.1798 13.1783 14.135 12.0002 14.135C10.8219 14.135 9.86684 13.1798 9.86684 12.0016C9.86684 10.8233 10.8219 9.86826 12.0002 9.86826Z" fill="white"/>
</svg>
