<svg width="24" height="24" viewBox="0 0 24 24" fill="none" xmlns="http://www.w3.org/2000/svg">
<path opacity="0.1" fill-rule="evenodd" clip-rule="evenodd" d="M0 12C0 5.37258 5.37258 0 12 0C18.6274 0 24 5.37258 24 12C24 18.6274 18.6274 24 12 24C5.37258 24 0 18.6274 0 12Z" fill="white"/>
<path fill-rule="evenodd" clip-rule="evenodd" d="M18.3996 11.9927C18.3996 12.4255 18.3555 12.8577 18.269 13.279C18.1846 13.6903 18.0596 14.0941 17.8958 14.4802C17.7359 14.8594 17.5374 15.2248 17.3055 15.5655C17.0771 15.9041 16.8139 16.2218 16.5248 16.5114C16.2351 16.7997 15.9164 17.0622 15.5779 17.2916C15.236 17.5219 14.8701 17.72 14.4907 17.8808C14.1041 18.0437 13.6994 18.1685 13.2884 18.2527C12.8666 18.3395 12.4328 18.3838 11.9993 18.3838C11.5656 18.3838 11.1318 18.3395 10.7105 18.2527C10.2989 18.1685 9.89422 18.0437 9.50795 17.8808C9.12856 17.72 8.76228 17.5219 8.42039 17.2916C8.08194 17.0622 7.76317 16.7997 7.47409 16.5114C7.18471 16.2218 6.92156 15.9041 6.6928 15.5655C6.46216 15.2248 6.26339 14.8593 6.10277 14.4802C5.93899 14.0941 5.81369 13.6903 5.72899 13.279C5.64337 12.8577 5.59961 12.4255 5.59961 11.9927C5.59961 11.5595 5.64335 11.1264 5.72902 10.706C5.81371 10.2947 5.93902 9.89028 6.10279 9.50489C6.26342 9.12542 6.46219 8.75969 6.69283 8.4189C6.92159 8.08001 7.18474 7.76293 7.47412 7.47302C7.7632 7.18465 8.08196 6.92286 8.42042 6.6938C8.7623 6.46255 9.12859 6.26441 9.50797 6.10337C9.89425 5.94013 10.2989 5.81501 10.7105 5.73139C11.1318 5.64526 11.5656 5.60156 11.9993 5.60156C12.4328 5.60156 12.8666 5.64526 13.2885 5.73139C13.6994 5.81503 14.1041 5.94015 14.4907 6.10337C14.8701 6.26439 15.2361 6.46255 15.5779 6.6938C15.9164 6.92286 16.2352 7.18465 16.5249 7.47302C16.814 7.76293 17.0771 8.08001 17.3055 8.4189C17.5374 8.75969 17.7359 9.12545 17.8958 9.50489C18.0596 9.89028 18.1846 10.2947 18.269 10.706C18.3555 11.1264 18.3996 11.5595 18.3996 11.9927ZM9.6673 7.0561C8.14314 7.7748 7.00558 9.17722 6.65087 10.8674C6.79496 10.8686 9.07258 10.8973 11.6968 10.2011C10.7508 8.5228 9.74012 7.15318 9.6673 7.0561ZM12.1496 11.0415C9.33541 11.8828 6.63494 11.8223 6.53807 11.8186C6.53649 11.8772 6.53369 11.934 6.53369 11.9927C6.53369 13.3948 7.0634 14.673 7.93407 15.6395C7.93219 15.6367 9.42792 12.9869 12.3774 12.0345C12.4487 12.0108 12.5212 11.9896 12.5931 11.969C12.4559 11.6588 12.3062 11.348 12.1496 11.0415ZM15.6089 7.8965C14.6466 7.04922 13.3831 6.53528 11.9993 6.53528C11.5552 6.53528 11.1242 6.58896 10.7114 6.6882C10.7933 6.79806 11.8199 8.15802 12.7546 9.87187C14.817 9.09983 15.5954 7.91646 15.6089 7.8965ZM12.9656 12.8733C12.9535 12.8774 12.9413 12.8808 12.9294 12.8852C9.70458 14.0078 8.65148 16.2701 8.64008 16.2948C9.56796 17.0154 10.7318 17.4501 11.9993 17.4501C12.7562 17.4501 13.4772 17.2962 14.1332 17.0176C14.0522 16.5407 13.7347 14.8693 12.9656 12.8733ZM15.0535 16.5189C16.2808 15.6919 17.1524 14.3788 17.3955 12.8577C17.283 12.8215 15.7539 12.3381 13.9897 12.6205C14.7066 14.5878 14.9979 16.19 15.0535 16.5189ZM13.1753 10.6851C13.3022 10.9454 13.425 11.2103 13.5385 11.4765C13.5788 11.572 13.6182 11.6656 13.6566 11.7593C15.5342 11.5233 17.384 11.9203 17.4631 11.9365C17.4506 10.6427 16.9871 9.45525 16.2202 8.52563C16.2099 8.54026 15.3333 9.80508 13.1753 10.6851Z" fill="white"/>
</svg>
