<svg width="24" height="24" viewBox="0 0 24 24" fill="none" xmlns="http://www.w3.org/2000/svg">
<path opacity="0.1" fill-rule="evenodd" clip-rule="evenodd" d="M0 12C0 5.37258 5.37258 0 12 0C18.6274 0 24 5.37258 24 12C24 18.6274 18.6274 24 12 24C5.37258 24 0 18.6274 0 12Z" fill="white"/>
<path fill-rule="evenodd" clip-rule="evenodd" d="M17.0004 7.87623C17.5512 8.02736 17.9849 8.47267 18.1321 9.03817C18.3996 10.0631 18.3996 12.2016 18.3996 12.2016C18.3996 12.2016 18.3996 14.34 18.1321 15.365C17.9849 15.9305 17.5512 16.3758 17.0004 16.527C16.0023 16.8016 11.9996 16.8016 11.9996 16.8016C11.9996 16.8016 7.99692 16.8016 6.99874 16.527C6.44797 16.3758 6.01423 15.9305 5.86703 15.365C5.59961 14.34 5.59961 12.2016 5.59961 12.2016C5.59961 12.2016 5.59961 10.0631 5.86703 9.03817C6.01423 8.47267 6.44797 8.02736 6.99874 7.87623C7.99692 7.60156 11.9996 7.60156 11.9996 7.60156C11.9996 7.60156 16.0023 7.60156 17.0004 7.87623ZM10.7996 10.4015V14.4015L13.9996 12.4016L10.7996 10.4015Z" fill="white"/>
</svg>
